<?xml version="1.0" encoding="UTF-8"?>
<!-- 脚本生成 SVG（.svg-render/gen_02_0405.py）：法格纳诺定理（题5），几何精确（数值验证）。
     锐角不等边 ΔABC：A210,50 B50,340 C450,320（边长 400 / 361 / 331）；
     垂足 D224.1,331.3(A→BC), E283.4,132.6(B→CA), F151.8,155.5(C→AB)，三者精确垂直且落在边内部；
     D 关于 AB、AC 的对称点 D₁-35.5,188.1、D₂487.7,96.9——反射展开后 D₁,F,E,D₂ 恰好共线，
     周长 = D₁F+FE+ED₂ = D₁D₂≈531.1（直线），故垂足三角形周长最短。 -->
<svg xmlns="http://www.w3.org/2000/svg" viewBox="-90.5 -35 633.2 440" text-rendering="geometricPrecision"
     font-family="ui-sans-serif, system-ui, -apple-system, 'Segoe UI', Roboto, 'PingFang SC', 'Microsoft YaHei', sans-serif">
  <polygon points="210,50 50,340 450,320" fill="#dbe9fb" stroke="#1f3a5f" stroke-width="2.5" stroke-linejoin="round"/>
  <line x1="210" y1="50" x2="224.1" y2="331.3" stroke="#9aa7b8" stroke-width="1.6" stroke-dasharray="5 4"/>
  <line x1="50" y1="340" x2="283.4" y2="132.6" stroke="#9aa7b8" stroke-width="1.6" stroke-dasharray="5 4"/>
  <line x1="450" y1="320" x2="151.8" y2="155.5" stroke="#9aa7b8" stroke-width="1.6" stroke-dasharray="5 4"/>
  <line x1="-35.5" y1="188.1" x2="224.1" y2="331.3" stroke="#c9d2dc" stroke-width="1.4" stroke-dasharray="4 4"/>
  <line x1="487.7" y1="96.9" x2="224.1" y2="331.3" stroke="#c9d2dc" stroke-width="1.4" stroke-dasharray="4 4"/>
  <line x1="-35.5" y1="188.1" x2="487.7" y2="96.9" stroke="#6b7280" stroke-width="1.6" stroke-dasharray="6 4"/>
  <polygon points="224.1,331.3 283.4,132.6 151.8,155.5" fill="none" stroke="#c0463a" stroke-width="2.4" stroke-linejoin="round"/>
  <line x1="59.4" y1="178.7" x2="57" y2="164.9" stroke="#c0463a" stroke-width="2"/>
  <line x1="194.4" y1="240.7" x2="181.5" y2="246" stroke="#c0463a" stroke-width="2"/>
  <line x1="384.3" y1="107.9" x2="386.7" y2="121.6" stroke="#c0463a" stroke-width="2"/>
  <line x1="260.4" y1="233.9" x2="247" y2="229.9" stroke="#c0463a" stroke-width="2"/>
  <path d="M212.1,331.9 L211.5,319.9 L223.5,319.3" fill="none" stroke="#374151" stroke-width="1.4"/>
  <path d="M275.4,123.6 L266.4,131.6 L274.4,140.5" fill="none" stroke="#374151" stroke-width="1.4"/>
  <path d="M146,166 L156.5,171.8 L162.3,161.3" fill="none" stroke="#374151" stroke-width="1.4"/>
  <circle cx="210" cy="50" r="4.5" fill="#1f3a5f"/>
  <text x="210" y="36" text-anchor="middle" fill="#1f3a5f" font-size="16" font-style="italic">A</text>
  <circle cx="50" cy="340" r="4.5" fill="#1f3a5f"/>
  <text x="36" y="356" text-anchor="end" fill="#1f3a5f" font-size="16" font-style="italic">B</text>
  <circle cx="450" cy="320" r="4.5" fill="#1f3a5f"/>
  <text x="464" y="336" fill="#1f3a5f" font-size="16" font-style="italic">C</text>
  <circle cx="224.1" cy="331.3" r="4" fill="#c0463a"/>
  <text x="234.1" y="351.3" fill="#c0463a" font-size="15" font-style="italic">D</text>
  <circle cx="283.4" cy="132.6" r="4" fill="#c0463a"/>
  <text x="297.4" y="128.6" fill="#c0463a" font-size="15" font-style="italic">E</text>
  <circle cx="151.8" cy="155.5" r="4" fill="#c0463a"/>
  <text x="137.8" y="151.5" text-anchor="end" fill="#c0463a" font-size="15" font-style="italic">F</text>
  <circle cx="-35.5" cy="188.1" r="4" fill="#6b7280"/>
  <text x="-47.5" y="180.1" text-anchor="end" fill="#6b7280" font-size="15">D₁</text>
  <circle cx="487.7" cy="96.9" r="4" fill="#6b7280"/>
  <text x="499.7" y="88.9" fill="#6b7280" font-size="15">D₂</text>
  <text x="210" y="-12" text-anchor="middle" fill="#c0463a" font-size="12">周长 = D₁F + FE + ED₂ = D₁D₂（拉直）</text>
  <text x="224.1" y="371.3" text-anchor="middle" fill="#c0463a" font-size="12">垂足三角形周长最短</text>
</svg>
